<?xml version="1.0" encoding="UTF-8"?><svg id="Capa_2" xmlns="http://www.w3.org/2000/svg" xmlns:xlink="http://www.w3.org/1999/xlink" viewBox="0 0 1728.53 771.84"><defs><style>.cls-1{clip-path:url(#clippath);}.cls-2,.cls-3{fill:none;}.cls-2,.cls-4,.cls-5{stroke-width:0px;}.cls-6{opacity:.05;}.cls-7{clip-path:url(#clippath-1);}.cls-8{clip-path:url(#clippath-2);}.cls-3{stroke:#514e60;stroke-miterlimit:10;}.cls-4{fill:#514e60;}.cls-5{fill:#f1e6dd;}</style><clipPath id="clippath"><rect class="cls-2" width="1725.98" height="771.84" rx="30.98" ry="30.98" transform="translate(1725.98 771.84) rotate(180)"/></clipPath><clipPath id="clippath-1"><rect class="cls-2" width="1725.98" height="771.84" rx="30.98" ry="30.98"/></clipPath><clipPath id="clippath-2"><rect class="cls-2" x="2.55" width="1725.98" height="771.84" rx="30.98" ry="30.98"/></clipPath></defs><g id="Capa_2-2"><rect class="cls-5" x="0" width="1725.98" height="771.84" rx="30.98" ry="30.98"/><g class="cls-1"><path class="cls-3" d="m359.9,1262.27S-850.85,1314.31-850.85,51.52"/><path class="cls-3" d="m366.27,1257.93S-844.48,1309.97-844.48,47.18"/><path class="cls-3" d="m372.63,1253.59S-838.12,1305.63-838.12,42.84"/><path class="cls-3" d="m379,1249.25S-831.75,1301.29-831.75,38.5"/><path class="cls-3" d="m385.37,1244.91S-825.38,1296.95-825.38,34.17"/><path class="cls-3" d="m391.73,1240.58S-819.02,1292.61-819.02,29.83"/><path class="cls-3" d="m398.1,1236.24S-812.65,1288.27-812.65,25.49"/><path class="cls-3" d="m404.46,1231.9S-806.28,1283.94-806.28,21.15"/><path class="cls-3" d="m410.83,1227.56S-799.92,1279.6-799.92,16.81"/><path class="cls-3" d="m417.2,1223.22S-793.55,1275.26-793.55,12.47"/><path class="cls-3" d="m423.56,1218.88S-787.19,1270.92-787.19,8.13"/><path class="cls-3" d="m429.93,1214.54S-780.82,1266.58-780.82,3.79"/><path class="cls-3" d="m436.3,1210.2S-774.45,1262.24-774.45-.55"/><path class="cls-3" d="m442.66,1205.86S-768.09,1257.9-768.09-4.89"/><path class="cls-3" d="m449.03,1201.53S-761.72,1253.56-761.72-9.22"/><path class="cls-3" d="m455.39,1197.19S-755.36,1249.22-755.36-13.56"/><path class="cls-3" d="m461.76,1192.85S-748.99,1244.89-748.99-17.9"/><path class="cls-3" d="m468.13,1188.51S-742.62,1240.55-742.62-22.24"/><path class="cls-3" d="m474.49,1184.17S-736.26,1236.21-736.26-26.58"/><path class="cls-3" d="m480.86,1179.83S-729.89,1231.87-729.89-30.92"/><path class="cls-3" d="m487.22,1175.49S-723.53,1227.53-723.53-35.26"/><path class="cls-3" d="m493.59,1171.15S-717.16,1223.19-717.16-39.6"/><path class="cls-3" d="m499.96,1166.81S-710.79,1218.85-710.79-43.94"/><path class="cls-3" d="m506.32,1162.47S-704.43,1214.51-704.43-48.27"/><path class="cls-3" d="m512.69,1158.14S-698.06,1210.17-698.06-52.61"/><path class="cls-3" d="m519.05,1153.8S-691.69,1205.83-691.69-56.95"/><path class="cls-3" d="m525.42,1149.46S-685.33,1201.5-685.33-61.29"/><path class="cls-3" d="m531.79,1145.12S-678.96,1197.16-678.96-65.63"/><path class="cls-3" d="m538.15,1140.78S-672.6,1192.82-672.6-69.97"/><path class="cls-3" d="m544.52,1136.44S-666.23,1188.48-666.23-74.31"/><path class="cls-3" d="m550.89,1132.1S-659.86,1184.14-659.86-78.65"/><path class="cls-3" d="m557.25,1127.76S-653.5,1179.8-653.5-82.99"/><path class="cls-3" d="m563.62,1123.42S-647.13,1175.46-647.13-87.33"/><path class="cls-3" d="m569.98,1119.08S-640.77,1171.12-640.77-91.66"/><path class="cls-3" d="m576.35,1114.75S-634.4,1166.78-634.4-96"/><path class="cls-3" d="m582.72,1110.41S-628.03,1162.44-628.03-100.34"/><path class="cls-3" d="m589.08,1106.07S-621.67,1158.11-621.67-104.68"/><path class="cls-3" d="m595.45,1101.73S-615.3,1153.77-615.3-109.02"/><path class="cls-3" d="m601.81,1097.39S-608.93,1149.43-608.93-113.36"/><path class="cls-3" d="m608.18,1093.05S-602.57,1145.09-602.57-117.7"/><path class="cls-3" d="m614.55,1088.71S-596.2,1140.75-596.2-122.04"/><path class="cls-3" d="m620.91,1084.37S-589.84,1136.41-589.84-126.38"/><path class="cls-3" d="m627.28,1080.03s-1210.75,52.04-1210.75-1210.75"/><path class="cls-3" d="m633.65,1075.69s-1210.75,52.04-1210.75-1210.75"/><path class="cls-3" d="m640.01,1071.36s-1210.75,52.04-1210.75-1210.75"/><path class="cls-3" d="m646.38,1067.02s-1210.75,52.04-1210.75-1210.75"/><path class="cls-3" d="m652.74,1062.68s-1210.75,52.04-1210.75-1210.75"/><path class="cls-3" d="m659.11,1058.34s-1210.75,52.04-1210.75-1210.75"/><path class="cls-3" d="m665.48,1054s-1210.75,52.04-1210.75-1210.75"/><path class="cls-3" d="m671.84,1049.66s-1210.75,52.04-1210.75-1210.75"/><path class="cls-3" d="m678.21,1045.32s-1210.75,52.04-1210.75-1210.75"/><path class="cls-3" d="m684.57,1040.98s-1210.75,52.04-1210.75-1210.75"/><path class="cls-3" d="m690.94,1036.64s-1210.75,52.04-1210.75-1210.75"/><path class="cls-3" d="m697.31,1032.31s-1210.75,52.04-1210.75-1210.75"/><path class="cls-3" d="m703.67,1027.97S-507.08,1080-507.08-182.78"/><path class="cls-3" d="m710.04,1023.63S-500.71,1075.67-500.71-187.12"/><path class="cls-3" d="m716.4,1019.29S-494.34,1071.33-494.34-191.46"/><path class="cls-3" d="m722.77,1014.95S-487.98,1066.99-487.98-195.8"/><path class="cls-3" d="m729.14,1010.61S-481.61,1062.65-481.61-200.14"/><path class="cls-3" d="m735.5,1006.27S-475.25,1058.31-475.25-204.48"/><path class="cls-3" d="m741.87,1001.93S-468.88,1053.97-468.88-208.82"/><path class="cls-3" d="m748.24,997.59S-462.51,1049.63-462.51-213.16"/><path class="cls-3" d="m754.6,993.25S-456.15,1045.29-456.15-217.49"/><path class="cls-3" d="m760.97,988.92S-449.78,1040.95-449.78-221.83"/><path class="cls-3" d="m767.33,984.58S-443.42,1036.61-443.42-226.17"/><path class="cls-3" d="m773.7,980.24S-437.05,1032.28-437.05-230.51"/><path class="cls-3" d="m780.07,975.9S-430.68,1027.94-430.68-234.85"/><path class="cls-3" d="m786.43,971.56S-424.32,1023.6-424.32-239.19"/><path class="cls-3" d="m792.8,967.22S-417.95,1019.26-417.95-243.53"/><path class="cls-3" d="m799.16,962.88S-411.58,1014.92-411.58-247.87"/><path class="cls-3" d="m805.53,958.54S-405.22,1010.58-405.22-252.21"/><path class="cls-3" d="m811.9,954.2S-398.85,1006.24-398.85-256.55"/><path class="cls-3" d="m818.26,949.86S-392.49,1001.9-392.49-260.88"/><path class="cls-3" d="m824.63,945.53S-386.12,997.56-386.12-265.22"/><path class="cls-3" d="m831,941.19S-379.75,993.22-379.75-269.56"/><path class="cls-3" d="m837.36,936.85S-373.39,988.89-373.39-273.9"/><path class="cls-3" d="m843.73,932.51S-367.02,984.55-367.02-278.24"/><path class="cls-3" d="m850.09,928.17S-360.66,980.21-360.66-282.58"/><path class="cls-3" d="m856.46,923.83S-354.29,975.87-354.29-286.92"/><path class="cls-3" d="m862.83,919.49S-347.92,971.53-347.92-291.26"/><path class="cls-3" d="m869.19,915.15S-341.56,967.19-341.56-295.6"/><path class="cls-3" d="m875.56,910.81S-335.19,962.85-335.19-299.94"/><path class="cls-3" d="m881.92,906.47S-328.83,958.51-328.83-304.27"/><path class="cls-3" d="m888.29,902.14S-322.46,954.17-322.46-308.61"/><path class="cls-3" d="m894.66,897.8S-316.09,949.83-316.09-312.95"/><path class="cls-3" d="m901.02,893.46S-309.73,945.5-309.73-317.29"/><path class="cls-3" d="m907.39,889.12S-303.36,941.16-303.36-321.63"/><path class="cls-3" d="m913.75,884.78S-296.99,936.82-296.99-325.97"/><path class="cls-3" d="m920.12,880.44S-290.63,932.48-290.63-330.31"/><path class="cls-3" d="m926.49,876.1S-284.26,928.14-284.26-334.65"/><path class="cls-3" d="m932.85,871.76S-277.9,923.8-277.9-338.99"/><path class="cls-3" d="m939.22,867.42S-271.53,919.46-271.53-343.33"/><path class="cls-3" d="m945.59,863.09S-265.16,915.12-265.16-347.66"/><path class="cls-3" d="m951.95,858.75S-258.8,910.78-258.8-352"/><path class="cls-3" d="m958.32,854.41S-252.43,906.45-252.43-356.34"/><path class="cls-3" d="m964.68,850.07S-246.07,902.11-246.07-360.68"/><path class="cls-3" d="m971.05,845.73S-239.7,897.77-239.7-365.02"/><path class="cls-3" d="m977.42,841.39S-233.33,893.43-233.33-369.36"/><path class="cls-3" d="m983.78,837.05S-226.97,889.09-226.97-373.7"/><path class="cls-3" d="m990.15,832.71S-220.6,884.75-220.6-378.04"/><path class="cls-3" d="m996.51,828.37S-214.23,880.41-214.23-382.38"/><path class="cls-3" d="m1002.88,824.03S-207.87,876.07-207.87-386.71"/></g><g class="cls-7"><path class="cls-3" d="m1366.08-490.43s1210.75-52.04,1210.75,1210.75"/><path class="cls-3" d="m1359.71-486.09s1210.75-52.04,1210.75,1210.75"/><path class="cls-3" d="m1353.34-481.76s1210.75-52.04,1210.75,1210.75"/><path class="cls-3" d="m1346.98-477.42s1210.75-52.04,1210.75,1210.75"/><path class="cls-3" d="m1340.61-473.08s1210.75-52.04,1210.75,1210.75"/><path class="cls-3" d="m1334.25-468.74s1210.75-52.04,1210.75,1210.75"/><path class="cls-3" d="m1327.88-464.4s1210.75-52.04,1210.75,1210.75"/><path class="cls-3" d="m1321.51-460.06s1210.75-52.04,1210.75,1210.75"/><path class="cls-3" d="m1315.15-455.72s1210.75-52.04,1210.75,1210.75"/><path class="cls-3" d="m1308.78-451.38s1210.75-52.04,1210.75,1210.75"/><path class="cls-3" d="m1302.42-447.04s1210.75-52.04,1210.75,1210.75"/><path class="cls-3" d="m1296.05-442.71s1210.75-52.04,1210.75,1210.75"/><path class="cls-3" d="m1289.68-438.37s1210.75-52.04,1210.75,1210.75"/><path class="cls-3" d="m1283.32-434.03s1210.75-52.04,1210.75,1210.75"/><path class="cls-3" d="m1276.95-429.69s1210.75-52.04,1210.75,1210.75"/><path class="cls-3" d="m1270.59-425.35s1210.75-52.04,1210.75,1210.75"/><path class="cls-3" d="m1264.22-421.01s1210.75-52.04,1210.75,1210.75"/><path class="cls-3" d="m1257.85-416.67s1210.75-52.04,1210.75,1210.75"/><path class="cls-3" d="m1251.49-412.33s1210.75-52.04,1210.75,1210.75"/><path class="cls-3" d="m1245.12-407.99s1210.75-52.04,1210.75,1210.75"/><path class="cls-3" d="m1238.75-403.65s1210.75-52.04,1210.75,1210.75"/><path class="cls-3" d="m1232.39-399.32s1210.75-52.04,1210.75,1210.75"/><path class="cls-3" d="m1226.02-394.98s1210.75-52.04,1210.75,1210.75"/><path class="cls-3" d="m1219.66-390.64s1210.75-52.04,1210.75,1210.75"/><path class="cls-3" d="m1213.29-386.3s1210.75-52.04,1210.75,1210.75"/><path class="cls-3" d="m1206.92-381.96s1210.75-52.04,1210.75,1210.75"/><path class="cls-3" d="m1200.56-377.62s1210.75-52.04,1210.75,1210.75"/><path class="cls-3" d="m1194.19-373.28s1210.75-52.04,1210.75,1210.75"/><path class="cls-3" d="m1187.83-368.94s1210.75-52.04,1210.75,1210.75"/><path class="cls-3" d="m1181.46-364.6s1210.75-52.04,1210.75,1210.75"/><path class="cls-3" d="m1175.09-360.26s1210.75-52.04,1210.75,1210.75"/><path class="cls-3" d="m1168.73-355.93s1210.75-52.04,1210.75,1210.75"/><path class="cls-3" d="m1162.36-351.59s1210.75-52.04,1210.75,1210.75"/><path class="cls-3" d="m1155.99-347.25s1210.75-52.04,1210.75,1210.75"/><path class="cls-3" d="m1149.63-342.91s1210.75-52.04,1210.75,1210.75"/><path class="cls-3" d="m1143.26-338.57s1210.75-52.04,1210.75,1210.75"/><path class="cls-3" d="m1136.9-334.23s1210.75-52.04,1210.75,1210.75"/><path class="cls-3" d="m1130.53-329.89s1210.75-52.04,1210.75,1210.75"/><path class="cls-3" d="m1124.16-325.55s1210.75-52.04,1210.75,1210.75"/><path class="cls-3" d="m1117.8-321.21s1210.75-52.04,1210.75,1210.75"/><path class="cls-3" d="m1111.43-316.87s1210.75-52.04,1210.75,1210.75"/><path class="cls-3" d="m1105.07-312.54s1210.75-52.04,1210.75,1210.75"/><path class="cls-3" d="m1098.7-308.2s1210.75-52.04,1210.75,1210.75"/><path class="cls-3" d="m1092.33-303.86s1210.75-52.04,1210.75,1210.75"/><path class="cls-3" d="m1085.97-299.52s1210.75-52.04,1210.75,1210.75"/><path class="cls-3" d="m1079.6-295.18s1210.75-52.04,1210.75,1210.75"/><path class="cls-3" d="m1073.24-290.84s1210.75-52.04,1210.75,1210.75"/><path class="cls-3" d="m1066.87-286.5s1210.75-52.04,1210.75,1210.75"/><path class="cls-3" d="m1060.5-282.16s1210.75-52.04,1210.75,1210.75"/><path class="cls-3" d="m1054.14-277.82s1210.75-52.04,1210.75,1210.75"/><path class="cls-3" d="m1047.77-273.49s1210.75-52.04,1210.75,1210.75"/><path class="cls-3" d="m1041.4-269.15s1210.75-52.04,1210.75,1210.75"/><path class="cls-3" d="m1035.04-264.81s1210.75-52.04,1210.75,1210.75"/><path class="cls-3" d="m1028.67-260.47s1210.75-52.04,1210.75,1210.75"/><path class="cls-3" d="m1022.31-256.13s1210.75-52.04,1210.75,1210.75"/><path class="cls-3" d="m1015.94-251.79s1210.75-52.04,1210.75,1210.75"/><path class="cls-3" d="m1009.57-247.45s1210.75-52.04,1210.75,1210.75"/><path class="cls-3" d="m1003.21-243.11s1210.75-52.04,1210.75,1210.75"/><path class="cls-3" d="m996.84-238.77s1210.75-52.04,1210.75,1210.75"/><path class="cls-3" d="m990.48-234.43s1210.75-52.04,1210.75,1210.75"/><path class="cls-3" d="m984.11-230.1s1210.75-52.04,1210.75,1210.75"/><path class="cls-3" d="m977.74-225.76s1210.75-52.04,1210.75,1210.75"/><path class="cls-3" d="m971.38-221.42s1210.75-52.04,1210.75,1210.75"/><path class="cls-3" d="m965.01-217.08s1210.75-52.04,1210.75,1210.75"/><path class="cls-3" d="m958.64-212.74s1210.75-52.04,1210.75,1210.75"/><path class="cls-3" d="m952.28-208.4s1210.75-52.04,1210.75,1210.75"/><path class="cls-3" d="m945.91-204.06s1210.75-52.04,1210.75,1210.75"/><path class="cls-3" d="m939.55-199.72s1210.75-52.04,1210.75,1210.75"/><path class="cls-3" d="m933.18-195.38s1210.75-52.04,1210.75,1210.75"/><path class="cls-3" d="m926.81-191.04s1210.75-52.04,1210.75,1210.75"/><path class="cls-3" d="m920.45-186.71s1210.75-52.04,1210.75,1210.75"/><path class="cls-3" d="m914.08-182.37s1210.75-52.04,1210.75,1210.75"/><path class="cls-3" d="m907.72-178.03s1210.75-52.04,1210.75,1210.75"/><path class="cls-3" d="m901.35-173.69s1210.75-52.04,1210.75,1210.75"/><path class="cls-3" d="m894.98-169.35s1210.75-52.04,1210.75,1210.75"/><path class="cls-3" d="m888.62-165.01s1210.75-52.04,1210.75,1210.75"/><path class="cls-3" d="m882.25-160.67s1210.75-52.04,1210.75,1210.75"/><path class="cls-3" d="m875.89-156.33s1210.75-52.04,1210.75,1210.75"/><path class="cls-3" d="m869.52-151.99s1210.75-52.04,1210.75,1210.75"/><path class="cls-3" d="m863.15-147.65s1210.75-52.04,1210.75,1210.75"/><path class="cls-3" d="m856.79-143.32s1210.75-52.04,1210.75,1210.75"/><path class="cls-3" d="m850.42-138.98s1210.75-52.04,1210.75,1210.75"/><path class="cls-3" d="m844.05-134.64s1210.75-52.04,1210.75,1210.75"/><path class="cls-3" d="m837.69-130.3s1210.75-52.04,1210.75,1210.75"/><path class="cls-3" d="m831.32-125.96s1210.75-52.04,1210.75,1210.75"/><path class="cls-3" d="m824.96-121.62s1210.75-52.04,1210.75,1210.75"/><path class="cls-3" d="m818.59-117.28s1210.75-52.04,1210.75,1210.75"/><path class="cls-3" d="m812.22-112.94s1210.75-52.04,1210.75,1210.75"/><path class="cls-3" d="m805.86-108.6s1210.75-52.04,1210.75,1210.75"/><path class="cls-3" d="m799.49-104.27s1210.75-52.04,1210.75,1210.75"/><path class="cls-3" d="m793.13-99.93s1210.75-52.04,1210.75,1210.75"/><path class="cls-3" d="m786.76-95.59s1210.75-52.04,1210.75,1210.75"/><path class="cls-3" d="m780.39-91.25s1210.75-52.04,1210.75,1210.75"/><path class="cls-3" d="m774.03-86.91s1210.75-52.04,1210.75,1210.75"/><path class="cls-3" d="m767.66-82.57s1210.75-52.04,1210.75,1210.75"/><path class="cls-3" d="m761.29-78.23s1210.75-52.04,1210.75,1210.75"/><path class="cls-3" d="m754.93-73.89s1210.75-52.04,1210.75,1210.75"/><path class="cls-3" d="m748.56-69.55s1210.75-52.04,1210.75,1210.75"/><path class="cls-3" d="m742.2-65.21s1210.75-52.04,1210.75,1210.75"/><path class="cls-3" d="m735.83-60.88s1210.75-52.04,1210.75,1210.75"/><path class="cls-3" d="m729.46-56.54s1210.75-52.04,1210.75,1210.75"/><path class="cls-3" d="m723.1-52.2s1210.75-52.04,1210.75,1210.75"/></g><g class="cls-8"><g class="cls-6"><path class="cls-4" d="m134.96,270.84C187.29,67.42,370.73-74.66,581.02-74.66c236.36,0,431.68,178.96,457.66,408.48,1.21,10.65-7.02,20.04-17.73,20.45-.12,0-.25,0-.37.01-9.69.36-17.95-6.84-19.04-16.48-23.95-210.8-203.41-375.11-420.52-375.11-193.26,0-361.79,130.54-409.9,317.45-2.54,9.97-12.74,15.99-22.71,13.45-10.01-2.58-16.02-12.77-13.45-22.75Z"/><path class="cls-4" d="m1018.97,422.34c.13,0,.25,0,.38,0,11.19-.2,20.13,9.51,18.75,20.62-28.19,227.15-222.45,403.54-457.08,403.54-210.29,0-393.72-142.09-446.05-345.5-2.58-9.97,3.44-20.17,13.45-22.75,9.97-2.54,20.17,3.47,22.71,13.45,48.11,186.91,216.64,317.45,409.9,317.45,215.54,0,393.95-161.95,419.94-370.53,1.14-9.16,8.79-16.11,18.01-16.27Z"/><path class="cls-4" d="m212.52,385.92c-38.5,15.95-51.43,28.87-67.37,67.37-15.95-38.5-28.87-51.43-67.37-67.37,38.5-15.95,51.43-28.87,67.37-67.37,15.95,38.5,28.87,51.43,67.37,67.37Z"/><path class="cls-4" d="m12.35,365.01c-25.74-7.3-53.68-15.23-74.37-34.07-21.13-22.52-9.18-50.42,13.66-64.76,38.37-24.43,82.39-33.72,125.39-43.25,28.3-5.73,56.73-10.1,85.27-13.33,7.83-.8,10.03,10.67,2.26,12.66-48.21,13-181.55,40.15-208.97,76.69-2.01,3.4-1.6,4.99.04,7.96,12.5,20.57,40.84,27.06,63.23,34.06,15.61,4.83,9.43,27.74-6.52,24.04h0Z"/><path class="cls-4" d="m2256.42,294.67c-75.97,19.35-152.39,34.55-229.79,46.69-17.48,2.73-35,5.3-52.55,7.73-58.08,8.07-116.76,14.57-176.34,19.87-10.46.97-20.99,1.9-31.52,2.76-46.65,3.88-93.86,7.13-141.71,9.94-11.95.71-23.9,1.38-35.93,2.02-24.35,1.34-48.86,2.58-73.55,3.7-10.46.49-20.95.97-31.49,1.46-25.47,1.12-51.1,2.17-76.98,3.21-5.64.22-11.28.45-16.96.67-4.86.19-9.75.37-14.57.56-22.82.9-45.27,1.76-67.38,2.54-11.21.41-22.34.78-33.39,1.2-81.95,2.76-159.27,4.86-233,6.24-12.59.26-25.06.49-37.43.67-178.05,2.84-335.23,1.49-485.68-3.92l-16.7-.67c-62.97-2.39-127.7-4.86-191.61-11.84,34.96-.45,70-.37,104.17-.26,34.14.07,69.47.15,104.32-.26,162.4-2.76,327.61-7.66,485.72-13.41,12.51-.49,24.91-.93,37.31-1.42,68.95-2.58,136.41-5.3,201.55-8.07h.04c15.5-.71,30.89-1.34,46.13-2.02,29.21-1.27,57.89-2.58,85.95-3.85,10.61-.49,21.1-.97,31.52-1.46,26.26-1.2,51.96-2.39,76.98-3.59,9.67-.45,19.24-.9,28.72-1.34.93-.04,1.87-.07,2.76-.15,17.33-.86,34.44-1.76,51.4-2.69,35.33-1.94,69.96-4,103.95-6.28,32.5-2.2,64.43-4.56,95.84-7.17,10.57-.86,21.07-1.79,31.52-2.73,38.88-3.47,77.02-7.36,114.59-11.77,18.75-2.17,37.35-4.48,55.84-6.98,95.84-12.74,188.59-29.28,281.07-51.43,10.91-2.02,17.63,4.74,19.46,12.36,1.76,7.28-.56,16.29-12.29,19.68Z"/><path class="cls-4" d="m1125.66,425.96c2.99-.07,5.98-.15,8.96-.22"/></g></g></g></svg>