<?xml version="1.0" encoding="UTF-8"?><svg id="Capa_2" xmlns="http://www.w3.org/2000/svg" viewBox="0 0 627.08 246.62"><defs><style>.cls-1{fill:#f3e8df;stroke-width:0px;}</style></defs><g id="Capa_1-2"><path class="cls-1" d="m329.72,77.75c3.05-2.36,6.94-3.55,11.69-3.55,4.25,0,7.97.88,11.14,2.65,3.18,1.77,5.85,4.54,8.02,8.32l7.47-4.58c-3.05-5.23-6.77-9-11.15-11.33-4.38-2.33-9.66-3.5-15.85-3.5-4.74,0-8.97.97-12.71,2.89-3.74,1.93-6.63,4.57-8.68,7.9-2.05,3.33-3.07,6.93-3.07,10.79,0,6.02,1.95,10.9,5.84,14.64,3.9,3.73,10.11,7.17,18.62,10.3.54.19,1.06.38,1.58.58,5.64-.23,11.21-.47,16.72-.71-3.52-2.52-7.94-4.77-13.23-6.74-7.16-2.57-12.44-5.2-15.85-7.89-3.42-2.69-5.12-6.01-5.12-9.94,0-4.18,1.52-7.46,4.58-9.83Zm40.62,52.66c-3.02.54-5.55.78-8.49,1.11.03.35.04.42.04.78,0,5.14-1.6,9.1-4.82,11.87-3.21,2.77-7.75,4.16-13.62,4.16-5.54,0-10.06-1.45-13.55-4.34-3.31-2.74-5.25-5.03-6.58-10.01-.07-.28-.14-.56-.21-.85l-2.19.91-6.25,2.59c1.04,4.34,2.49,6.62,5.11,9.95,2.61,3.33,5.95,5.95,10.01,7.83,4.05,1.89,8.61,2.84,13.67,2.84,5.63,0,10.49-1.13,14.59-3.38,4.09-2.25,7.21-5.24,9.34-8.98,2.13-3.73,3.19-7.77,3.19-12.11,0-.62-.18-1.76-.23-2.36Z"/><path class="cls-1" d="m387.68,67.33v43.56c2.84-.13,5.65-.26,8.44-.39v-43.17h-8.44Zm4.1,62.79c-1.37.05-2.74.11-4.1.16v25.39h8.44v-25.72c-1.44.06-2.89.11-4.34.17Z"/><path class="cls-1" d="m470.3,79.8c-2.53-3.97-5.97-7.03-10.31-9.16-4.33-2.12-9.08-3.23-14.22-3.31-9.64-.08-19.32-.08-29.04,0v42.21c2.84-.14,5.65-.26,8.43-.4h0s0-33.13,0-33.13c5.79-.08,12.3-.08,19.53,0,4.01.08,7.61.86,10.78,2.35,3.18,1.48,5.63,3.57,7.36,6.26,1.72,2.7,2.59,5.77,2.59,9.22,0,5.47-1.61,9.48-4.82,12.05-.63.51-1.33.97-2.08,1.38,4.22-.27,8.41-.55,12.56-.84.19-.33.37-.67.54-1.02,1.65-3.37,2.47-7.23,2.47-11.57,0-5.38-1.26-10.06-3.79-14.04Zm-53.57,49.29v26.58h8.43v-26.97c-2.8.13-5.61.26-8.43.39Zm40.84-2.1c-3.2.2-6.41.38-9.63.56l17.96,28.12h10.12l-18.45-28.68Z"/><path class="cls-1" d="m492.41,124.52v31.15h8.44v-31.87c-2.8.26-5.62.5-8.44.72Zm0-57.19v37.47c2.83-.23,5.64-.47,8.44-.73v-36.74h-8.44Z"/><path class="cls-1" d="m560.81,69.26c-4.38-2.33-9.67-3.5-15.85-3.5-4.74,0-8.98.97-12.72,2.89-3.73,1.93-6.63,4.57-8.67,7.9-2.05,3.33-3.08,6.93-3.08,10.79,0,5.79,1.81,10.53,5.42,14.21,4.09-.46,8.15-.94,12.18-1.43-1.51-.86-2.81-1.72-3.92-2.6-3.42-2.69-5.12-6.01-5.12-9.94,0-4.18,1.52-7.46,4.58-9.83,3.05-2.36,6.95-3.55,11.69-3.55,4.26,0,7.97.88,11.15,2.65,3.17,1.77,5.84,4.54,8.01,8.32l7.47-4.58c-3.05-5.23-6.77-9-11.14-11.33Zm7.77,47.66c-.39-.44-.79-.88-1.23-1.31-3.75.62-7.51,1.2-11.28,1.75,1.87,1.13,3.45,2.31,4.74,3.54,3.33,3.17,5,6.97,5,11.39,0,5.14-1.61,9.1-4.82,11.87-3.22,2.77-7.76,4.16-13.62,4.16-5.55,0-10.07-1.45-13.56-4.34-3.5-2.89-5.89-7.03-7.17-12.42l-8.44,3.5c1.05,4.34,2.87,8.18,5.49,11.51,2.61,3.33,5.94,5.95,10,7.83,4.05,1.89,8.62,2.84,13.68,2.84,5.62,0,10.48-1.13,14.58-3.38,4.1-2.25,7.21-5.24,9.34-8.98,2.13-3.73,3.19-7.77,3.19-12.11,0-6.03-1.97-11.31-5.9-15.85Z"/><path class="cls-1" d="m55.68,92.5C69.69,38.04,118.8,0,175.1,0c63.28,0,115.57,47.91,122.53,109.36.32,2.85-1.88,5.37-4.75,5.47-.03,0-.07,0-.1,0-2.59.1-4.8-1.83-5.1-4.41-6.41-56.44-54.46-100.43-112.58-100.43-51.74,0-96.86,34.95-109.74,84.99-.68,2.67-3.41,4.28-6.08,3.6-2.68-.69-4.29-3.42-3.6-6.09Z"/><path class="cls-1" d="m292.35,133.06s.07,0,.1,0c3-.05,5.39,2.55,5.02,5.52-7.55,60.81-59.56,108.04-122.37,108.04-56.3,0-105.41-38.04-119.42-92.5-.69-2.67.92-5.4,3.6-6.09,2.67-.68,5.4.93,6.08,3.6,12.88,50.04,58,84.99,109.74,84.99,57.7,0,105.47-43.36,112.43-99.2.31-2.45,2.35-4.31,4.82-4.36Z"/><path class="cls-1" d="m76.45,123.31c-10.31,4.27-13.77,7.73-18.04,18.04-4.27-10.31-7.73-13.77-18.04-18.04,10.31-4.27,13.77-7.73,18.04-18.04,4.27,10.31,7.73,13.77,18.04,18.04Z"/><path class="cls-1" d="m22.86,117.71c-6.89-1.95-14.37-4.08-19.91-9.12-5.66-6.03-2.46-13.5,3.66-17.34,10.27-6.54,22.06-9.03,33.57-11.58,7.58-1.53,15.19-2.7,22.83-3.57,2.1-.21,2.69,2.86.6,3.39-12.91,3.48-48.61,10.75-55.95,20.53-.54.91-.43,1.34.01,2.13,3.35,5.51,10.93,7.24,16.93,9.12,4.18,1.29,2.52,7.43-1.74,6.44h0Z"/><path class="cls-1" d="m623.65,98.88c-20.34,5.18-40.8,9.25-61.52,12.5-4.68.73-9.37,1.42-14.07,2.07-15.55,2.16-31.26,3.9-47.21,5.32-2.8.26-5.62.51-8.44.74-12.49,1.04-25.13,1.91-37.94,2.66-3.2.19-6.4.37-9.62.54-6.52.36-13.08.69-19.69.99-2.8.13-5.61.26-8.43.39-6.82.3-13.68.58-20.61.86-1.51.06-3.02.12-4.54.18-1.3.05-2.61.1-3.9.15-6.11.24-12.12.47-18.04.68-3,.11-5.98.21-8.94.32-21.94.74-42.64,1.3-62.38,1.67-3.37.07-6.71.13-10.02.18-47.67.76-89.75.4-130.03-1.05l-4.47-.18c-16.86-.64-34.19-1.3-51.3-3.17,9.36-.12,18.74-.1,27.89-.07,9.14.02,18.6.04,27.93-.07,43.48-.74,87.71-2.05,130.04-3.59,3.35-.13,6.67-.25,9.99-.38,18.46-.69,36.52-1.42,53.96-2.16h.01c4.15-.19,8.27-.36,12.35-.54,7.82-.34,15.5-.69,23.01-1.03,2.84-.13,5.65-.26,8.44-.39,7.03-.32,13.91-.64,20.61-.96,2.59-.12,5.15-.24,7.69-.36.25-.01.5-.02.74-.04,4.64-.23,9.22-.47,13.76-.72,9.46-.52,18.73-1.07,27.83-1.68,8.7-.59,17.25-1.22,25.66-1.92,2.83-.23,5.64-.48,8.44-.73,10.41-.93,20.62-1.97,30.68-3.15,5.02-.58,10-1.2,14.95-1.87,25.66-3.41,50.49-7.84,75.25-13.77,2.92-.54,4.72,1.27,5.21,3.31.47,1.95-.15,4.36-3.29,5.27Z"/><path class="cls-1" d="m320.92,134.03c.8-.02,1.6-.04,2.4-.06"/></g></svg>